<svg id="eK3VTjBeAtn1" xmlns="http://www.w3.org/2000/svg" xmlns:xlink="http://www.w3.org/1999/xlink" viewBox="0 0 1920 1080" shape-rendering="geometricPrecision" text-rendering="geometricPrecision" project-id="8289256d64954659a455ff1861d3f953" export-id="a1e6ada8b13746d5a85e9e73bb12dfc2" cached="false"><defs><radialGradient id="eK3VTjBeAtn205-fill" cx="0" cy="0" r="1" spreadMethod="pad" gradientUnits="userSpaceOnUse" gradientTransform="matrix(0 740 -1315.56 0 1560 634)"><stop id="eK3VTjBeAtn205-fill-0" offset="0%" stop-color="#d9d9d9"/><stop id="eK3VTjBeAtn205-fill-1" offset="100%" stop-color="rgba(217,217,217,0.32)"/></radialGradient><linearGradient id="eK3VTjBeAtn210-stroke" x1="0" y1="0.5" x2="1" y2="0.5" spreadMethod="pad" gradientUnits="objectBoundingBox" gradientTransform="translate(0 0)"><stop id="eK3VTjBeAtn210-stroke-0" offset="0%" stop-color="#fd6215"/><stop id="eK3VTjBeAtn210-stroke-1" offset="100%" stop-color="#fa0"/></linearGradient><linearGradient id="eK3VTjBeAtn217-stroke" x1="0" y1="0.5" x2="1" y2="0.5" spreadMethod="pad" gradientUnits="objectBoundingBox" gradientTransform="translate(0 0)"><stop id="eK3VTjBeAtn217-stroke-0" offset="0%" stop-color="#fa0a2e"/><stop id="eK3VTjBeAtn217-stroke-1" offset="27%" stop-color="#fb3522"/><stop id="eK3VTjBeAtn217-stroke-2" offset="55%" stop-color="#fd6215"/><stop id="eK3VTjBeAtn217-stroke-3" offset="79%" stop-color="#fe880a"/><stop id="eK3VTjBeAtn217-stroke-4" offset="100%" stop-color="#fa0"/></linearGradient><linearGradient id="eK3VTjBeAtn222-stroke" x1="0" y1="0.5" x2="1" y2="0.5" spreadMethod="pad" gradientUnits="objectBoundingBox" gradientTransform="translate(0 0)"><stop id="eK3VTjBeAtn222-stroke-0" offset="0%" stop-color="#fb3522"/><stop id="eK3VTjBeAtn222-stroke-1" offset="100%" stop-color="#fa0"/></linearGradient></defs><g clip-path="url(#eK3VTjBeAtn206)"><g><rect width="1920" height="1080" rx="0" ry="0" fill="#08001b"/><g mask="url(#eK3VTjBeAtn204)"><g><rect width="8" height="8" rx="4" ry="4" transform="translate(156 536)" fill="#36304f"/><rect width="8" height="8" rx="4" ry="4" transform="translate(356 536)" fill="#36304f"/><rect width="8" height="8" rx="4" ry="4" transform="translate(556 536)" fill="#36304f"/><rect width="8" height="8" rx="4" ry="4" transform="translate(756 536)" fill="#36304f"/><rect width="8" height="8" rx="4" ry="4" transform="translate(956 536)" fill="#36304f"/><rect width="8" height="8" rx="4" ry="4" transform="translate(1356 536)" fill="#36304f"/><rect width="8" height="8" rx="4" ry="4" transform="translate(1556 536)" fill="#36304f"/><rect width="8" height="8" rx="4" ry="4" transform="translate(56 586)" fill="#36304f"/><rect width="8" height="8" rx="4" ry="4" transform="translate(256 586)" fill="#36304f"/><rect width="8" height="8" rx="4" ry="4" transform="translate(456 586)" fill="#36304f"/><rect width="8" height="8" rx="4" ry="4" transform="translate(656 586)" fill="#36304f"/><rect width="8" height="8" rx="4" ry="4" transform="translate(856 586)" fill="#36304f"/><rect width="8" height="8" rx="4" ry="4" transform="translate(1056 586)" fill="#36304f"/><rect width="8" height="8" rx="4" ry="4" transform="translate(1256 586)" fill="#36304f"/><rect width="8" height="8" rx="4" ry="4" transform="translate(1456 586)" fill="#36304f"/><rect width="8" height="8" rx="4" ry="4" transform="translate(1656 586)" fill="#36304f"/><rect width="8" height="8" rx="4" ry="4" transform="translate(1856 586)" fill="#36304f"/><rect width="8" height="8" rx="4" ry="4" transform="translate(156 636)" fill="#36304f"/><rect width="8" height="8" rx="4" ry="4" transform="translate(356 636)" fill="#36304f"/><rect width="8" height="8" rx="4" ry="4" transform="translate(556 636)" fill="#36304f"/><rect width="8" height="8" rx="4" ry="4" transform="translate(756 636)" fill="#36304f"/><rect width="8" height="8" rx="4" ry="4" transform="translate(956 636)" fill="#36304f"/><rect width="8" height="8" rx="4" ry="4" transform="translate(1156 636)" fill="#36304f"/><rect width="8" height="8" rx="4" ry="4" transform="translate(1356 636)" fill="#36304f"/><rect width="8" height="8" rx="4" ry="4" transform="translate(1556 636)" fill="#36304f"/><rect width="8" height="8" rx="4" ry="4" transform="translate(1756 636)" fill="#36304f"/><rect width="8" height="8" rx="4" ry="4" transform="translate(56 686)" fill="#36304f"/><rect width="8" height="8" rx="4" ry="4" transform="translate(256 686)" fill="#36304f"/><rect width="8" height="8" rx="4" ry="4" transform="translate(456 686)" fill="#36304f"/><rect width="8" height="8" rx="4" ry="4" transform="translate(656 686)" fill="#36304f"/><rect width="8" height="8" rx="4" ry="4" transform="translate(856 686)" fill="#36304f"/><rect width="8" height="8" rx="4" ry="4" transform="translate(1056 686)" fill="#36304f"/><rect width="8" height="8" rx="4" ry="4" transform="translate(1256 686)" fill="#36304f"/><rect width="8" height="8" rx="4" ry="4" transform="translate(1456 686)" fill="#36304f"/><rect width="8" height="8" rx="4" ry="4" transform="translate(1656 686)" fill="#36304f"/><rect width="8" height="8" rx="4" ry="4" transform="translate(1856 686)" fill="#36304f"/><rect width="8" height="8" rx="4" ry="4" transform="translate(156 736)" fill="#36304f"/><rect width="8" height="8" rx="4" ry="4" transform="translate(356 736)" fill="#36304f"/><rect width="8" height="8" rx="4" ry="4" transform="translate(556 736)" fill="#36304f"/><rect width="8" height="8" rx="4" ry="4" transform="translate(756 736)" fill="#36304f"/><rect width="8" height="8" rx="4" ry="4" transform="translate(956 736)" fill="#36304f"/><rect width="8" height="8" rx="4" ry="4" transform="translate(1156 736)" fill="#36304f"/><rect width="8" height="8" rx="4" ry="4" transform="translate(1356 736)" fill="#36304f"/><rect width="8" height="8" rx="4" ry="4" transform="translate(1556 736)" fill="#36304f"/><rect width="8" height="8" rx="4" ry="4" transform="translate(1756 736)" fill="#36304f"/><rect width="8" height="8" rx="4" ry="4" transform="translate(56 786)" fill="#36304f"/><rect width="8" height="8" rx="4" ry="4" transform="translate(256 786)" fill="#36304f"/><rect width="8" height="8" rx="4" ry="4" transform="translate(456 786)" fill="#36304f"/><rect width="8" height="8" rx="4" ry="4" transform="translate(656 786)" fill="#36304f"/><rect width="8" height="8" rx="4" ry="4" transform="translate(856 786)" fill="#36304f"/><rect width="8" height="8" rx="4" ry="4" transform="translate(1056 786)" fill="#36304f"/><rect width="8" height="8" rx="4" ry="4" transform="translate(1256 786)" fill="#36304f"/><rect width="8" height="8" rx="4" ry="4" transform="translate(1456 786)" fill="#36304f"/><rect width="8" height="8" rx="4" ry="4" transform="translate(1656 786)" fill="#36304f"/><rect width="8" height="8" rx="4" ry="4" transform="translate(1856 786)" fill="#36304f"/><rect width="8" height="8" rx="4" ry="4" transform="translate(56 286)" fill="#36304f"/><rect width="8" height="8" rx="4" ry="4" transform="translate(256 286)" fill="#36304f"/><rect width="8" height="8" rx="4" ry="4" transform="translate(456 286)" fill="#36304f"/><rect width="8" height="8" rx="4" ry="4" transform="translate(656 286)" fill="#36304f"/><rect width="8" height="8" rx="4" ry="4" transform="translate(856 286)" fill="#36304f"/><rect width="8" height="8" rx="4" ry="4" transform="translate(1056 286)" fill="#36304f"/><rect width="8" height="8" rx="4" ry="4" transform="translate(1256 286)" fill="#36304f"/><rect width="8" height="8" rx="4" ry="4" transform="translate(1456 286)" fill="#36304f"/><rect width="8" height="8" rx="4" ry="4" transform="translate(1656 286)" fill="#36304f"/><rect width="8" height="8" rx="4" ry="4" transform="translate(1856 286)" fill="#36304f"/><rect width="8" height="8" rx="4" ry="4" transform="translate(156 36)" fill="#36304f"/><rect width="8" height="8" rx="4" ry="4" transform="translate(356 36)" fill="#36304f"/><rect width="8" height="8" rx="4" ry="4" transform="translate(556 36)" fill="#36304f"/><rect width="8" height="8" rx="4" ry="4" transform="translate(756 36)" fill="#36304f"/><rect width="8" height="8" rx="4" ry="4" transform="translate(956 36)" fill="#36304f"/><rect width="8" height="8" rx="4" ry="4" transform="translate(1156 36)" fill="#36304f"/><rect width="8" height="8" rx="4" ry="4" transform="translate(1356 36)" fill="#36304f"/><rect width="8" height="8" rx="4" ry="4" transform="translate(1556 36)" fill="#36304f"/><rect width="8" height="8" rx="4" ry="4" transform="translate(1756 36)" fill="#36304f"/><rect width="8" height="8" rx="4" ry="4" transform="translate(156 836)" fill="#36304f"/><rect width="8" height="8" rx="4" ry="4" transform="translate(356 836)" fill="#36304f"/><rect width="8" height="8" rx="4" ry="4" transform="translate(556 836)" fill="#36304f"/><rect width="8" height="8" rx="4" ry="4" transform="translate(756 836)" fill="#36304f"/><rect width="8" height="8" rx="4" ry="4" transform="translate(956 836)" fill="#36304f"/><rect width="8" height="8" rx="4" ry="4" transform="translate(1156 836)" fill="#36304f"/><rect width="8" height="8" rx="4" ry="4" transform="translate(1356 836)" fill="#36304f"/><rect width="8" height="8" rx="4" ry="4" transform="translate(1556 836)" fill="#36304f"/><rect width="8" height="8" rx="4" ry="4" transform="translate(1756 836)" fill="#36304f"/><rect width="8" height="8" rx="4" ry="4" transform="translate(156 336)" fill="#36304f"/><rect width="8" height="8" rx="4" ry="4" transform="translate(356 336)" fill="#36304f"/><rect width="8" height="8" rx="4" ry="4" transform="translate(556 336)" fill="#36304f"/><rect width="8" height="8" rx="4" ry="4" transform="translate(756 336)" fill="#36304f"/><rect width="8" height="8" rx="4" ry="4" transform="translate(956 336)" fill="#36304f"/><rect width="8" height="8" rx="4" ry="4" transform="translate(1156 336)" fill="#36304f"/><rect width="8" height="8" rx="4" ry="4" transform="translate(1356 336)" fill="#36304f"/><rect width="8" height="8" rx="4" ry="4" transform="translate(1556 336)" fill="#36304f"/><rect width="8" height="8" rx="4" ry="4" transform="translate(1756 336)" fill="#36304f"/><rect width="8" height="8" rx="4" ry="4" transform="translate(56 86)" fill="#36304f"/><rect width="8" height="8" rx="4" ry="4" transform="translate(256 86)" fill="#36304f"/><rect width="8" height="8" rx="4" ry="4" transform="translate(456 86)" fill="#36304f"/><rect width="8" height="8" rx="4" ry="4" transform="translate(656 86)" fill="#36304f"/><rect width="8" height="8" rx="4" ry="4" transform="translate(856 86)" fill="#36304f"/><rect width="8" height="8" rx="4" ry="4" transform="translate(1056 86)" fill="#36304f"/><rect width="8" height="8" rx="4" ry="4" transform="translate(1256 86)" fill="#36304f"/><rect width="8" height="8" rx="4" ry="4" transform="translate(1456 86)" fill="#36304f"/><rect width="8" height="8" rx="4" ry="4" transform="translate(1656 86)" fill="#36304f"/><rect width="8" height="8" rx="4" ry="4" transform="translate(1856 86)" fill="#36304f"/><rect width="8" height="8" rx="4" ry="4" transform="translate(56 886)" fill="#36304f"/><rect width="8" height="8" rx="4" ry="4" transform="translate(256 886)" fill="#36304f"/><rect width="8" height="8" rx="4" ry="4" transform="translate(456 886)" fill="#36304f"/><rect width="8" height="8" rx="4" ry="4" transform="translate(656 886)" fill="#36304f"/><rect width="8" height="8" rx="4" ry="4" transform="translate(856 886)" fill="#36304f"/><rect width="8" height="8" rx="4" ry="4" transform="translate(1056 886)" fill="#36304f"/><rect width="8" height="8" rx="4" ry="4" transform="translate(1256 886)" fill="#36304f"/><rect width="8" height="8" rx="4" ry="4" transform="translate(1456 886)" fill="#36304f"/><rect width="8" height="8" rx="4" ry="4" transform="translate(1656 886)" fill="#36304f"/><rect width="8" height="8" rx="4" ry="4" transform="translate(1856 886)" fill="#36304f"/><rect width="8" height="8" rx="4" ry="4" transform="translate(56 386)" fill="#36304f"/><rect width="8" height="8" rx="4" ry="4" transform="translate(256 386)" fill="#36304f"/><rect width="8" height="8" rx="4" ry="4" transform="translate(456 386)" fill="#36304f"/><rect width="8" height="8" rx="4" ry="4" transform="translate(656 386)" fill="#36304f"/><rect width="8" height="8" rx="4" ry="4" transform="translate(856 386)" fill="#36304f"/><rect width="8" height="8" rx="4" ry="4" transform="translate(1056 386)" fill="#36304f"/><rect width="8" height="8" rx="4" ry="4" transform="translate(1256 386)" fill="#36304f"/><rect width="8" height="8" rx="4" ry="4" transform="translate(1456 386)" fill="#36304f"/><rect width="8" height="8" rx="4" ry="4" transform="translate(1656 386)" fill="#36304f"/><rect width="8" height="8" rx="4" ry="4" transform="translate(1856 386)" fill="#36304f"/><rect width="8" height="8" rx="4" ry="4" transform="translate(156 136)" fill="#36304f"/><rect width="8" height="8" rx="4" ry="4" transform="translate(356 136)" fill="#36304f"/><rect width="8" height="8" rx="4" ry="4" transform="translate(556 136)" fill="#36304f"/><rect width="8" height="8" rx="4" ry="4" transform="translate(756 136)" fill="#36304f"/><rect width="8" height="8" rx="4" ry="4" transform="translate(956 136)" fill="#36304f"/><rect width="8" height="8" rx="4" ry="4" transform="translate(1156 136)" fill="#36304f"/><rect width="8" height="8" rx="4" ry="4" transform="translate(1356 136)" fill="#36304f"/><rect width="8" height="8" rx="4" ry="4" transform="translate(1556 136)" fill="#36304f"/><rect width="8" height="8" rx="4" ry="4" transform="translate(1756 136)" fill="#36304f"/><rect width="8" height="8" rx="4" ry="4" transform="translate(156 936)" fill="#36304f"/><rect width="8" height="8" rx="4" ry="4" transform="translate(56 986)" fill="#36304f"/><rect width="8" height="8" rx="4" ry="4" transform="translate(356 936)" fill="#36304f"/><rect width="8" height="8" rx="4" ry="4" transform="translate(556 936)" fill="#36304f"/><rect width="8" height="8" rx="4" ry="4" transform="translate(756 936)" fill="#36304f"/><rect width="8" height="8" rx="4" ry="4" transform="translate(956 936)" fill="#36304f"/><rect width="8" height="8" rx="4" ry="4" transform="translate(1156 936)" fill="#36304f"/><rect width="8" height="8" rx="4" ry="4" transform="translate(1356 936)" fill="#36304f"/><rect width="8" height="8" rx="4" ry="4" transform="translate(1556 936)" fill="#36304f"/><rect width="8" height="8" rx="4" ry="4" transform="translate(1756 936)" fill="#36304f"/><rect width="8" height="8" rx="4" ry="4" transform="translate(156 436)" fill="#36304f"/><rect width="8" height="8" rx="4" ry="4" transform="translate(356 436)" fill="#36304f"/><rect width="8" height="8" rx="4" ry="4" transform="translate(556 436)" fill="#36304f"/><rect width="8" height="8" rx="4" ry="4" transform="translate(756 436)" fill="#36304f"/><rect width="8" height="8" rx="4" ry="4" transform="translate(956 436)" fill="#36304f"/><rect width="8" height="8" rx="4" ry="4" transform="translate(1156 436)" fill="#36304f"/><rect width="8" height="8" rx="4" ry="4" transform="translate(1356 436)" fill="#36304f"/><rect width="8" height="8" rx="4" ry="4" transform="translate(1556 436)" fill="#36304f"/><rect width="8" height="8" rx="4" ry="4" transform="translate(1756 436)" fill="#36304f"/><rect width="8" height="8" rx="4" ry="4" transform="translate(56 186)" fill="#36304f"/><rect width="8" height="8" rx="4" ry="4" transform="translate(256 186)" fill="#36304f"/><rect width="8" height="8" rx="4" ry="4" transform="translate(456 186)" fill="#36304f"/><rect width="8" height="8" rx="4" ry="4" transform="translate(656 186)" fill="#36304f"/><rect width="8" height="8" rx="4" ry="4" transform="translate(856 186)" fill="#36304f"/><rect width="8" height="8" rx="4" ry="4" transform="translate(1056 186)" fill="#36304f"/><rect width="8" height="8" rx="4" ry="4" transform="translate(1256 186)" fill="#36304f"/><rect width="8" height="8" rx="4" ry="4" transform="translate(1456 186)" fill="#36304f"/><rect width="8" height="8" rx="4" ry="4" transform="translate(1656 186)" fill="#36304f"/><rect width="8" height="8" rx="4" ry="4" transform="translate(1856 186)" fill="#36304f"/><rect width="8" height="8" rx="4" ry="4" transform="translate(256 986)" fill="#36304f"/><rect width="8" height="8" rx="4" ry="4" transform="translate(156 1036)" fill="#36304f"/><rect width="8" height="8" rx="4" ry="4" transform="translate(456 986)" fill="#36304f"/><rect width="8" height="8" rx="4" ry="4" transform="translate(656 986)" fill="#36304f"/><rect width="8" height="8" rx="4" ry="4" transform="translate(856 986)" fill="#36304f"/><rect width="8" height="8" rx="4" ry="4" transform="translate(1056 986)" fill="#36304f"/><rect width="8" height="8" rx="4" ry="4" transform="translate(1256 986)" fill="#36304f"/><rect width="8" height="8" rx="4" ry="4" transform="translate(1456 986)" fill="#36304f"/><rect width="8" height="8" rx="4" ry="4" transform="translate(1656 986)" fill="#36304f"/><rect width="8" height="8" rx="4" ry="4" transform="translate(1856 986)" fill="#36304f"/><rect width="8" height="8" rx="4" ry="4" transform="translate(356 1036)" fill="#36304f"/><rect width="8" height="8" rx="4" ry="4" transform="translate(556 1036)" fill="#36304f"/><rect width="8" height="8" rx="4" ry="4" transform="translate(756 1036)" fill="#36304f"/><rect width="8" height="8" rx="4" ry="4" transform="translate(956 1036)" fill="#36304f"/><rect width="8" height="8" rx="4" ry="4" transform="translate(1156 1036)" fill="#36304f"/><rect width="8" height="8" rx="4" ry="4" transform="translate(1356 1036)" fill="#36304f"/><rect width="8" height="8" rx="4" ry="4" transform="translate(1556 1036)" fill="#36304f"/><rect width="8" height="8" rx="4" ry="4" transform="translate(1756 1036)" fill="#36304f"/><rect width="8" height="8" rx="4" ry="4" transform="translate(56 486)" fill="#36304f"/><rect width="8" height="8" rx="4" ry="4" transform="translate(256 486)" fill="#36304f"/><rect width="8" height="8" rx="4" ry="4" transform="translate(456 486)" fill="#36304f"/><rect width="8" height="8" rx="4" ry="4" transform="translate(656 486)" fill="#36304f"/><rect width="8" height="8" rx="4" ry="4" transform="translate(856 486)" fill="#36304f"/><rect width="8" height="8" rx="4" ry="4" transform="translate(1056 486)" fill="#36304f"/><rect width="8" height="8" rx="4" ry="4" transform="translate(1256 486)" fill="#36304f"/><rect width="8" height="8" rx="4" ry="4" transform="translate(1456 486)" fill="#36304f"/><rect width="8" height="8" rx="4" ry="4" transform="translate(1656 486)" fill="#36304f"/><rect width="8" height="8" rx="4" ry="4" transform="translate(1856 486)" fill="#36304f"/><rect width="8" height="8" rx="4" ry="4" transform="translate(156 236)" fill="#36304f"/><rect width="8" height="8" rx="4" ry="4" transform="translate(356 236)" fill="#36304f"/><rect width="8" height="8" rx="4" ry="4" transform="translate(556 236)" fill="#36304f"/><rect width="8" height="8" rx="4" ry="4" transform="translate(756 236)" fill="#36304f"/><rect width="8" height="8" rx="4" ry="4" transform="translate(956 236)" fill="#36304f"/><rect width="8" height="8" rx="4" ry="4" transform="translate(1156 236)" fill="#36304f"/><rect width="8" height="8" rx="4" ry="4" transform="translate(1356 236)" fill="#36304f"/><rect width="8" height="8" rx="4" ry="4" transform="translate(1556 236)" fill="#36304f"/><rect width="8" height="8" rx="4" ry="4" transform="translate(1756 236)" fill="#36304f"/></g><mask id="eK3VTjBeAtn204" mask-type="alpha" x="-150%" y="-150%" height="400%" width="400%"><rect width="1920" height="1080" rx="0" ry="0" fill="url(#eK3VTjBeAtn205-fill)"/></mask></g></g><clipPath id="eK3VTjBeAtn206"><rect width="1920" height="1080" rx="0" ry="0" fill="#fff"/></clipPath></g><g transform="matrix(1.255704 0.336465-.336465 1.255704 1230.190261 141.957937)" opacity="0.65"><g mask="url(#eK3VTjBeAtn211)"><ellipse rx="125" ry="125" transform="translate(400 250)" fill="none" stroke="url(#eK3VTjBeAtn210-stroke)" stroke-width="30"/><mask id="eK3VTjBeAtn211" mask-type="luminance" x="-150%" y="-150%" height="400%" width="400%"><g><rect width="500" height="500" rx="0" ry="0" fill="#fff" stroke-width="0"/><ellipse rx="235" ry="235" transform="translate(250 250)" fill="none" stroke="#000" stroke-width="50"/><ellipse rx="235" ry="235" transform="matrix(1.05888 0 0 1 256.895 250)" fill="none" stroke="#000" stroke-width="50"/></g></mask></g><g mask="url(#eK3VTjBeAtn218)"><ellipse rx="235" ry="235" transform="translate(250 250)" fill="none" stroke="url(#eK3VTjBeAtn217-stroke)" stroke-width="30"/><mask id="eK3VTjBeAtn218" mask-type="luminance" x="-150%" y="-150%" height="400%" width="400%"><g><rect width="500" height="500" rx="0" ry="0" fill="#fff" stroke-width="0"/></g></mask></g><g mask="url(#eK3VTjBeAtn223)"><path d="M185,0c0,102.172679-82.827321,185-185,185s-185-82.827321-185-185s82.827321-185,185-185s185,82.827321,185,185Z" transform="translate(327.273 249.152)" fill="none" stroke="url(#eK3VTjBeAtn222-stroke)" stroke-width="30"/><mask id="eK3VTjBeAtn223" mask-type="luminance" x="-150%" y="-150%" height="400%" width="400%"><g><rect width="500" height="500" rx="0" ry="0" fill="#fff" stroke-width="0"/><ellipse rx="235" ry="235" transform="translate(250 250)" fill="none" stroke="#000" stroke-width="50"/><ellipse rx="235" ry="235" transform="matrix(1.0781 0 0 1 259.146 250)" fill="none" stroke="#000" stroke-width="50"/></g></mask></g></g></svg>
