<svg id="eTbagiJmSG61" xmlns="http://www.w3.org/2000/svg" xmlns:xlink="http://www.w3.org/1999/xlink" viewBox="0 0 1920 1080" shape-rendering="geometricPrecision" text-rendering="geometricPrecision" project-id="7f1f653c194a4c139b4d15da2552539f" export-id="5de9b2fd800f4ce488a51847d3c72329" cached="false"><defs><radialGradient id="eTbagiJmSG6205-fill" cx="0" cy="0" r="1" spreadMethod="pad" gradientUnits="userSpaceOnUse" gradientTransform="matrix(0 740 -1315.56 0 1560 634)"><stop id="eTbagiJmSG6205-fill-0" offset="0%" stop-color="#d9d9d9"/><stop id="eTbagiJmSG6205-fill-1" offset="100%" stop-color="rgba(217,217,217,0.32)"/></radialGradient><linearGradient id="eTbagiJmSG6212-stroke" x1="0" y1="0.5" x2="1" y2="0.5" spreadMethod="pad" gradientUnits="objectBoundingBox" gradientTransform="translate(0 0)"><stop id="eTbagiJmSG6212-stroke-0" offset="0%" stop-color="#fd6215"/><stop id="eTbagiJmSG6212-stroke-1" offset="100%" stop-color="#fa0"/></linearGradient><linearGradient id="eTbagiJmSG6219-stroke" x1="0" y1="0.5" x2="1" y2="0.5" spreadMethod="pad" gradientUnits="objectBoundingBox" gradientTransform="translate(0 0)"><stop id="eTbagiJmSG6219-stroke-0" offset="0%" stop-color="#fa0a2e"/><stop id="eTbagiJmSG6219-stroke-1" offset="27%" stop-color="#fb3522"/><stop id="eTbagiJmSG6219-stroke-2" offset="55%" stop-color="#fd6215"/><stop id="eTbagiJmSG6219-stroke-3" offset="79%" stop-color="#fe880a"/><stop id="eTbagiJmSG6219-stroke-4" offset="100%" stop-color="#fa0"/></linearGradient><linearGradient id="eTbagiJmSG6224-stroke" x1="0" y1="0.5" x2="1" y2="0.5" spreadMethod="pad" gradientUnits="objectBoundingBox" gradientTransform="translate(0 0)"><stop id="eTbagiJmSG6224-stroke-0" offset="0%" stop-color="#fb3522"/><stop id="eTbagiJmSG6224-stroke-1" offset="100%" stop-color="#fa0"/></linearGradient></defs><g clip-path="url(#eTbagiJmSG6208)"><g><rect width="1920" height="1080" rx="0" ry="0" fill="#f5f1ff"/><g mask="url(#eTbagiJmSG6204)"><g><rect width="8" height="8" rx="4" ry="4" transform="translate(156 536)" fill="#d2cede"/><rect width="8" height="8" rx="4" ry="4" transform="translate(356 536)" fill="#d2cede"/><rect width="8" height="8" rx="4" ry="4" transform="translate(556 536)" fill="#d2cede"/><rect width="8" height="8" rx="4" ry="4" transform="translate(756 536)" fill="#d2cede"/><rect width="8" height="8" rx="4" ry="4" transform="translate(956 536)" fill="#d2cede"/><rect width="8" height="8" rx="4" ry="4" transform="translate(1356 536)" fill="#d2cede"/><rect width="8" height="8" rx="4" ry="4" transform="translate(1556 536)" fill="#d2cede"/><rect width="8" height="8" rx="4" ry="4" transform="translate(56 586)" fill="#d2cede"/><rect width="8" height="8" rx="4" ry="4" transform="translate(256 586)" fill="#d2cede"/><rect width="8" height="8" rx="4" ry="4" transform="translate(456 586)" fill="#d2cede"/><rect width="8" height="8" rx="4" ry="4" transform="translate(656 586)" fill="#d2cede"/><rect width="8" height="8" rx="4" ry="4" transform="translate(856 586)" fill="#d2cede"/><rect width="8" height="8" rx="4" ry="4" transform="translate(1056 586)" fill="#d2cede"/><rect width="8" height="8" rx="4" ry="4" transform="translate(1256 586)" fill="#d2cede"/><rect width="8" height="8" rx="4" ry="4" transform="translate(1456 586)" fill="#d2cede"/><rect width="8" height="8" rx="4" ry="4" transform="translate(1656 586)" fill="#d2cede"/><rect width="8" height="8" rx="4" ry="4" transform="translate(1856 586)" fill="#d2cede"/><rect width="8" height="8" rx="4" ry="4" transform="translate(156 636)" fill="#d2cede"/><rect width="8" height="8" rx="4" ry="4" transform="translate(356 636)" fill="#d2cede"/><rect width="8" height="8" rx="4" ry="4" transform="translate(556 636)" fill="#d2cede"/><rect width="8" height="8" rx="4" ry="4" transform="translate(756 636)" fill="#d2cede"/><rect width="8" height="8" rx="4" ry="4" transform="translate(956 636)" fill="#d2cede"/><rect width="8" height="8" rx="4" ry="4" transform="translate(1156 636)" fill="#d2cede"/><rect width="8" height="8" rx="4" ry="4" transform="translate(1356 636)" fill="#d2cede"/><rect width="8" height="8" rx="4" ry="4" transform="translate(1556 636)" fill="#d2cede"/><rect width="8" height="8" rx="4" ry="4" transform="translate(1756 636)" fill="#d2cede"/><rect width="8" height="8" rx="4" ry="4" transform="translate(56 686)" fill="#d2cede"/><rect width="8" height="8" rx="4" ry="4" transform="translate(256 686)" fill="#d2cede"/><rect width="8" height="8" rx="4" ry="4" transform="translate(456 686)" fill="#d2cede"/><rect width="8" height="8" rx="4" ry="4" transform="translate(656 686)" fill="#d2cede"/><rect width="8" height="8" rx="4" ry="4" transform="translate(856 686)" fill="#d2cede"/><rect width="8" height="8" rx="4" ry="4" transform="translate(1056 686)" fill="#d2cede"/><rect width="8" height="8" rx="4" ry="4" transform="translate(1256 686)" fill="#d2cede"/><rect width="8" height="8" rx="4" ry="4" transform="translate(1456 686)" fill="#d2cede"/><rect width="8" height="8" rx="4" ry="4" transform="translate(1656 686)" fill="#d2cede"/><rect width="8" height="8" rx="4" ry="4" transform="translate(1856 686)" fill="#d2cede"/><rect width="8" height="8" rx="4" ry="4" transform="translate(156 736)" fill="#d2cede"/><rect width="8" height="8" rx="4" ry="4" transform="translate(356 736)" fill="#d2cede"/><rect width="8" height="8" rx="4" ry="4" transform="translate(556 736)" fill="#d2cede"/><rect width="8" height="8" rx="4" ry="4" transform="translate(756 736)" fill="#d2cede"/><rect width="8" height="8" rx="4" ry="4" transform="translate(956 736)" fill="#d2cede"/><rect width="8" height="8" rx="4" ry="4" transform="translate(1156 736)" fill="#d2cede"/><rect width="8" height="8" rx="4" ry="4" transform="translate(1356 736)" fill="#d2cede"/><rect width="8" height="8" rx="4" ry="4" transform="translate(1556 736)" fill="#d2cede"/><rect width="8" height="8" rx="4" ry="4" transform="translate(1756 736)" fill="#d2cede"/><rect width="8" height="8" rx="4" ry="4" transform="translate(56 786)" fill="#d2cede"/><rect width="8" height="8" rx="4" ry="4" transform="translate(256 786)" fill="#d2cede"/><rect width="8" height="8" rx="4" ry="4" transform="translate(456 786)" fill="#d2cede"/><rect width="8" height="8" rx="4" ry="4" transform="translate(656 786)" fill="#d2cede"/><rect width="8" height="8" rx="4" ry="4" transform="translate(856 786)" fill="#d2cede"/><rect width="8" height="8" rx="4" ry="4" transform="translate(1056 786)" fill="#d2cede"/><rect width="8" height="8" rx="4" ry="4" transform="translate(1256 786)" fill="#d2cede"/><rect width="8" height="8" rx="4" ry="4" transform="translate(1456 786)" fill="#d2cede"/><rect width="8" height="8" rx="4" ry="4" transform="translate(1656 786)" fill="#d2cede"/><rect width="8" height="8" rx="4" ry="4" transform="translate(1856 786)" fill="#d2cede"/><rect width="8" height="8" rx="4" ry="4" transform="translate(56 286)" fill="#d2cede"/><rect width="8" height="8" rx="4" ry="4" transform="translate(256 286)" fill="#d2cede"/><rect width="8" height="8" rx="4" ry="4" transform="translate(456 286)" fill="#d2cede"/><rect width="8" height="8" rx="4" ry="4" transform="translate(656 286)" fill="#d2cede"/><rect width="8" height="8" rx="4" ry="4" transform="translate(856 286)" fill="#d2cede"/><rect width="8" height="8" rx="4" ry="4" transform="translate(1056 286)" fill="#d2cede"/><rect width="8" height="8" rx="4" ry="4" transform="translate(1256 286)" fill="#d2cede"/><rect width="8" height="8" rx="4" ry="4" transform="translate(1456 286)" fill="#d2cede"/><rect width="8" height="8" rx="4" ry="4" transform="translate(1656 286)" fill="#d2cede"/><rect width="8" height="8" rx="4" ry="4" transform="translate(1856 286)" fill="#d2cede"/><rect width="8" height="8" rx="4" ry="4" transform="translate(156 36)" fill="#d2cede"/><rect width="8" height="8" rx="4" ry="4" transform="translate(356 36)" fill="#d2cede"/><rect width="8" height="8" rx="4" ry="4" transform="translate(556 36)" fill="#d2cede"/><rect width="8" height="8" rx="4" ry="4" transform="translate(756 36)" fill="#d2cede"/><rect width="8" height="8" rx="4" ry="4" transform="translate(956 36)" fill="#d2cede"/><rect width="8" height="8" rx="4" ry="4" transform="translate(1156 36)" fill="#d2cede"/><rect width="8" height="8" rx="4" ry="4" transform="translate(1356 36)" fill="#d2cede"/><rect width="8" height="8" rx="4" ry="4" transform="translate(1556 36)" fill="#d2cede"/><rect width="8" height="8" rx="4" ry="4" transform="translate(1756 36)" fill="#d2cede"/><rect width="8" height="8" rx="4" ry="4" transform="translate(156 836)" fill="#d2cede"/><rect width="8" height="8" rx="4" ry="4" transform="translate(356 836)" fill="#d2cede"/><rect width="8" height="8" rx="4" ry="4" transform="translate(556 836)" fill="#d2cede"/><rect width="8" height="8" rx="4" ry="4" transform="translate(756 836)" fill="#d2cede"/><rect width="8" height="8" rx="4" ry="4" transform="translate(956 836)" fill="#d2cede"/><rect width="8" height="8" rx="4" ry="4" transform="translate(1156 836)" fill="#d2cede"/><rect width="8" height="8" rx="4" ry="4" transform="translate(1356 836)" fill="#d2cede"/><rect width="8" height="8" rx="4" ry="4" transform="translate(1556 836)" fill="#d2cede"/><rect width="8" height="8" rx="4" ry="4" transform="translate(1756 836)" fill="#d2cede"/><rect width="8" height="8" rx="4" ry="4" transform="translate(156 336)" fill="#d2cede"/><rect width="8" height="8" rx="4" ry="4" transform="translate(356 336)" fill="#d2cede"/><rect width="8" height="8" rx="4" ry="4" transform="translate(556 336)" fill="#d2cede"/><rect width="8" height="8" rx="4" ry="4" transform="translate(756 336)" fill="#d2cede"/><rect width="8" height="8" rx="4" ry="4" transform="translate(956 336)" fill="#d2cede"/><rect width="8" height="8" rx="4" ry="4" transform="translate(1156 336)" fill="#d2cede"/><rect width="8" height="8" rx="4" ry="4" transform="translate(1356 336)" fill="#d2cede"/><rect width="8" height="8" rx="4" ry="4" transform="translate(1556 336)" fill="#d2cede"/><rect width="8" height="8" rx="4" ry="4" transform="translate(1756 336)" fill="#d2cede"/><rect width="8" height="8" rx="4" ry="4" transform="translate(56 86)" fill="#d2cede"/><rect width="8" height="8" rx="4" ry="4" transform="translate(256 86)" fill="#d2cede"/><rect width="8" height="8" rx="4" ry="4" transform="translate(456 86)" fill="#d2cede"/><rect width="8" height="8" rx="4" ry="4" transform="translate(656 86)" fill="#d2cede"/><rect width="8" height="8" rx="4" ry="4" transform="translate(856 86)" fill="#d2cede"/><rect width="8" height="8" rx="4" ry="4" transform="translate(1056 86)" fill="#d2cede"/><rect width="8" height="8" rx="4" ry="4" transform="translate(1256 86)" fill="#d2cede"/><rect width="8" height="8" rx="4" ry="4" transform="translate(1456 86)" fill="#d2cede"/><rect width="8" height="8" rx="4" ry="4" transform="translate(1656 86)" fill="#d2cede"/><rect width="8" height="8" rx="4" ry="4" transform="translate(1856 86)" fill="#d2cede"/><rect width="8" height="8" rx="4" ry="4" transform="translate(56 886)" fill="#d2cede"/><rect width="8" height="8" rx="4" ry="4" transform="translate(256 886)" fill="#d2cede"/><rect width="8" height="8" rx="4" ry="4" transform="translate(456 886)" fill="#d2cede"/><rect width="8" height="8" rx="4" ry="4" transform="translate(656 886)" fill="#d2cede"/><rect width="8" height="8" rx="4" ry="4" transform="translate(856 886)" fill="#d2cede"/><rect width="8" height="8" rx="4" ry="4" transform="translate(1056 886)" fill="#d2cede"/><rect width="8" height="8" rx="4" ry="4" transform="translate(1256 886)" fill="#d2cede"/><rect width="8" height="8" rx="4" ry="4" transform="translate(1456 886)" fill="#d2cede"/><rect width="8" height="8" rx="4" ry="4" transform="translate(1656 886)" fill="#d2cede"/><rect width="8" height="8" rx="4" ry="4" transform="translate(1856 886)" fill="#d2cede"/><rect width="8" height="8" rx="4" ry="4" transform="translate(56 386)" fill="#d2cede"/><rect width="8" height="8" rx="4" ry="4" transform="translate(256 386)" fill="#d2cede"/><rect width="8" height="8" rx="4" ry="4" transform="translate(456 386)" fill="#d2cede"/><rect width="8" height="8" rx="4" ry="4" transform="translate(656 386)" fill="#d2cede"/><rect width="8" height="8" rx="4" ry="4" transform="translate(856 386)" fill="#d2cede"/><rect width="8" height="8" rx="4" ry="4" transform="translate(1056 386)" fill="#d2cede"/><rect width="8" height="8" rx="4" ry="4" transform="translate(1256 386)" fill="#d2cede"/><rect width="8" height="8" rx="4" ry="4" transform="translate(1456 386)" fill="#d2cede"/><rect width="8" height="8" rx="4" ry="4" transform="translate(1656 386)" fill="#d2cede"/><rect width="8" height="8" rx="4" ry="4" transform="translate(1856 386)" fill="#d2cede"/><rect width="8" height="8" rx="4" ry="4" transform="translate(156 136)" fill="#d2cede"/><rect width="8" height="8" rx="4" ry="4" transform="translate(356 136)" fill="#d2cede"/><rect width="8" height="8" rx="4" ry="4" transform="translate(556 136)" fill="#d2cede"/><rect width="8" height="8" rx="4" ry="4" transform="translate(756 136)" fill="#d2cede"/><rect width="8" height="8" rx="4" ry="4" transform="translate(956 136)" fill="#d2cede"/><rect width="8" height="8" rx="4" ry="4" transform="translate(1156 136)" fill="#d2cede"/><rect width="8" height="8" rx="4" ry="4" transform="translate(1356 136)" fill="#d2cede"/><rect width="8" height="8" rx="4" ry="4" transform="translate(1556 136)" fill="#d2cede"/><rect width="8" height="8" rx="4" ry="4" transform="translate(1756 136)" fill="#d2cede"/><rect width="8" height="8" rx="4" ry="4" transform="translate(156 936)" fill="#d2cede"/><rect width="8" height="8" rx="4" ry="4" transform="translate(56 986)" fill="#d2cede"/><rect width="8" height="8" rx="4" ry="4" transform="translate(356 936)" fill="#d2cede"/><rect width="8" height="8" rx="4" ry="4" transform="translate(556 936)" fill="#d2cede"/><rect width="8" height="8" rx="4" ry="4" transform="translate(756 936)" fill="#d2cede"/><rect width="8" height="8" rx="4" ry="4" transform="translate(956 936)" fill="#d2cede"/><rect width="8" height="8" rx="4" ry="4" transform="translate(1156 936)" fill="#d2cede"/><rect width="8" height="8" rx="4" ry="4" transform="translate(1356 936)" fill="#d2cede"/><rect width="8" height="8" rx="4" ry="4" transform="translate(1556 936)" fill="#d2cede"/><rect width="8" height="8" rx="4" ry="4" transform="translate(1756 936)" fill="#d2cede"/><rect width="8" height="8" rx="4" ry="4" transform="translate(156 436)" fill="#d2cede"/><rect width="8" height="8" rx="4" ry="4" transform="translate(356 436)" fill="#d2cede"/><rect width="8" height="8" rx="4" ry="4" transform="translate(556 436)" fill="#d2cede"/><rect width="8" height="8" rx="4" ry="4" transform="translate(756 436)" fill="#d2cede"/><rect width="8" height="8" rx="4" ry="4" transform="translate(956 436)" fill="#d2cede"/><rect width="8" height="8" rx="4" ry="4" transform="translate(1156 436)" fill="#d2cede"/><rect width="8" height="8" rx="4" ry="4" transform="translate(1356 436)" fill="#d2cede"/><rect width="8" height="8" rx="4" ry="4" transform="translate(1556 436)" fill="#d2cede"/><rect width="8" height="8" rx="4" ry="4" transform="translate(1756 436)" fill="#d2cede"/><rect width="8" height="8" rx="4" ry="4" transform="translate(56 186)" fill="#d2cede"/><rect width="8" height="8" rx="4" ry="4" transform="translate(256 186)" fill="#d2cede"/><rect width="8" height="8" rx="4" ry="4" transform="translate(456 186)" fill="#d2cede"/><rect width="8" height="8" rx="4" ry="4" transform="translate(656 186)" fill="#d2cede"/><rect width="8" height="8" rx="4" ry="4" transform="translate(856 186)" fill="#d2cede"/><rect width="8" height="8" rx="4" ry="4" transform="translate(1056 186)" fill="#d2cede"/><rect width="8" height="8" rx="4" ry="4" transform="translate(1256 186)" fill="#d2cede"/><rect width="8" height="8" rx="4" ry="4" transform="translate(1456 186)" fill="#d2cede"/><rect width="8" height="8" rx="4" ry="4" transform="translate(1656 186)" fill="#d2cede"/><rect width="8" height="8" rx="4" ry="4" transform="translate(1856 186)" fill="#d2cede"/><rect width="8" height="8" rx="4" ry="4" transform="translate(256 986)" fill="#d2cede"/><rect width="8" height="8" rx="4" ry="4" transform="translate(156 1036)" fill="#d2cede"/><rect width="8" height="8" rx="4" ry="4" transform="translate(456 986)" fill="#d2cede"/><rect width="8" height="8" rx="4" ry="4" transform="translate(656 986)" fill="#d2cede"/><rect width="8" height="8" rx="4" ry="4" transform="translate(856 986)" fill="#d2cede"/><rect width="8" height="8" rx="4" ry="4" transform="translate(1056 986)" fill="#d2cede"/><rect width="8" height="8" rx="4" ry="4" transform="translate(1256 986)" fill="#d2cede"/><rect width="8" height="8" rx="4" ry="4" transform="translate(1456 986)" fill="#d2cede"/><rect width="8" height="8" rx="4" ry="4" transform="translate(1656 986)" fill="#d2cede"/><rect width="8" height="8" rx="4" ry="4" transform="translate(1856 986)" fill="#d2cede"/><rect width="8" height="8" rx="4" ry="4" transform="translate(356 1036)" fill="#d2cede"/><rect width="8" height="8" rx="4" ry="4" transform="translate(556 1036)" fill="#d2cede"/><rect width="8" height="8" rx="4" ry="4" transform="translate(756 1036)" fill="#d2cede"/><rect width="8" height="8" rx="4" ry="4" transform="translate(956 1036)" fill="#d2cede"/><rect width="8" height="8" rx="4" ry="4" transform="translate(1156 1036)" fill="#d2cede"/><rect width="8" height="8" rx="4" ry="4" transform="translate(1356 1036)" fill="#d2cede"/><rect width="8" height="8" rx="4" ry="4" transform="translate(1556 1036)" fill="#d2cede"/><rect width="8" height="8" rx="4" ry="4" transform="translate(1756 1036)" fill="#d2cede"/><rect width="8" height="8" rx="4" ry="4" transform="translate(56 486)" fill="#d2cede"/><rect width="8" height="8" rx="4" ry="4" transform="translate(256 486)" fill="#d2cede"/><rect width="8" height="8" rx="4" ry="4" transform="translate(456 486)" fill="#d2cede"/><rect width="8" height="8" rx="4" ry="4" transform="translate(656 486)" fill="#d2cede"/><rect width="8" height="8" rx="4" ry="4" transform="translate(856 486)" fill="#d2cede"/><rect width="8" height="8" rx="4" ry="4" transform="translate(1056 486)" fill="#d2cede"/><rect width="8" height="8" rx="4" ry="4" transform="translate(1256 486)" fill="#d2cede"/><rect width="8" height="8" rx="4" ry="4" transform="translate(1456 486)" fill="#d2cede"/><rect width="8" height="8" rx="4" ry="4" transform="translate(1656 486)" fill="#d2cede"/><rect width="8" height="8" rx="4" ry="4" transform="translate(1856 486)" fill="#d2cede"/><rect width="8" height="8" rx="4" ry="4" transform="translate(156 236)" fill="#d2cede"/><rect width="8" height="8" rx="4" ry="4" transform="translate(356 236)" fill="#d2cede"/><rect width="8" height="8" rx="4" ry="4" transform="translate(556 236)" fill="#d2cede"/><rect width="8" height="8" rx="4" ry="4" transform="translate(756 236)" fill="#d2cede"/><rect width="8" height="8" rx="4" ry="4" transform="translate(956 236)" fill="#d2cede"/><rect width="8" height="8" rx="4" ry="4" transform="translate(1156 236)" fill="#d2cede"/><rect width="8" height="8" rx="4" ry="4" transform="translate(1356 236)" fill="#d2cede"/><rect width="8" height="8" rx="4" ry="4" transform="translate(1556 236)" fill="#d2cede"/><rect width="8" height="8" rx="4" ry="4" transform="translate(1756 236)" fill="#d2cede"/></g><mask id="eTbagiJmSG6204" mask-type="alpha" x="-150%" y="-150%" height="400%" width="400%"><rect width="1920" height="1080" rx="0" ry="0" fill="url(#eTbagiJmSG6205-fill)"/></mask></g><path d="M1151.89,567.625c-12.9,29.14-19.89,61.095-19.89,94.071v68.172c0,82.991,88.83,135.724,161.69,95.983l373.23-203.583c9.75-5.318,19.02-11.275,27.76-17.804-7-17.011-17.09-32.634-29.76-46.047-7.55,5.879-15.62,11.191-24.18,15.859L1267.51,777.86c-36.43,19.87-80.84-6.496-80.84-47.992v-68.172c0-16.468,2.28-32.603,6.61-48.022-15.67-13.718-29.54-29.197-41.39-46.049Zm103.2-46.044c-12.68-13.413-22.77-29.035-29.77-46.046c8.74-6.529,18.01-12.486,27.76-17.803l373.23-203.581c72.86-39.74,161.69,12.992,161.69,95.983v68.17c0,32.975-6.99,64.929-19.89,94.068-11.85-16.852-25.72-32.331-41.38-46.049c4.33-15.419,6.6-31.552,6.6-48.019v-68.17c0-41.495-44.41-67.862-80.84-47.992L1279.26,505.723c-8.56,4.668-16.63,9.98-24.17,15.858Z" clip-rule="evenodd" fill="#f5f1ff" fill-rule="evenodd"/><path d="M1186.67,350.131c0-41.495,44.41-67.862,80.84-47.992l106.87,58.291l57.08-31.135-137.77-75.147C1220.83,214.408,1132,267.14,1132,350.131v68.173c0,85.021,46.44,163.252,121.08,203.964l121.3,66.163l57.08-31.135-152.2-83.02c-57.08-31.133-92.59-90.956-92.59-155.972v-68.173Zm358.95,369.436l-57.08,31.135l137.77,75.147c72.86,39.74,161.69-12.992,161.69-95.983v-68.173c0-85.021-46.44-163.252-121.08-203.964l-121.3-66.164-57.08,31.135l152.2,83.02c57.08,31.134,92.59,90.957,92.59,155.973v68.173c0,41.495-44.41,67.862-80.84,47.992l-106.87-58.291Z" clip-rule="evenodd" fill="#f5f1ff" fill-rule="evenodd"/></g><clipPath id="eTbagiJmSG6208"><rect width="1920" height="1080" rx="0" ry="0" fill="#fff"/></clipPath></g><g transform="matrix(1.253495 0.335873-.335873 1.253495 1230.59455 142.658185)" opacity="0.65"><g mask="url(#eTbagiJmSG6213)"><ellipse rx="125" ry="125" transform="translate(400 250)" fill="none" stroke="url(#eTbagiJmSG6212-stroke)" stroke-width="30"/><mask id="eTbagiJmSG6213" mask-type="luminance" x="-150%" y="-150%" height="400%" width="400%"><g><rect width="500" height="500" rx="0" ry="0" fill="#fff" stroke-width="0"/><ellipse rx="235" ry="235" transform="translate(250 250)" fill="none" stroke="#000" stroke-width="50"/><ellipse rx="235" ry="235" transform="matrix(1.05888 0 0 1 256.895 250)" fill="none" stroke="#000" stroke-width="50"/></g></mask></g><g mask="url(#eTbagiJmSG6220)"><ellipse rx="235" ry="235" transform="translate(250 250)" fill="none" stroke="url(#eTbagiJmSG6219-stroke)" stroke-width="30"/><mask id="eTbagiJmSG6220" mask-type="luminance" x="-150%" y="-150%" height="400%" width="400%"><g><rect width="500" height="500" rx="0" ry="0" fill="#fff" stroke-width="0"/></g></mask></g><g mask="url(#eTbagiJmSG6225)"><path d="M185,0c0,102.172679-82.827321,185-185,185s-185-82.827321-185-185s82.827321-185,185-185s185,82.827321,185,185Z" transform="translate(327.273 249.152)" fill="none" stroke="url(#eTbagiJmSG6224-stroke)" stroke-width="30"/><mask id="eTbagiJmSG6225" mask-type="luminance" x="-150%" y="-150%" height="400%" width="400%"><g><rect width="500" height="500" rx="0" ry="0" fill="#fff" stroke-width="0"/><ellipse rx="235" ry="235" transform="translate(250 250)" fill="none" stroke="#000" stroke-width="50"/><ellipse rx="235" ry="235" transform="matrix(1.0781 0 0 1 259.146 250)" fill="none" stroke="#000" stroke-width="50"/></g></mask></g></g></svg>
