<svg id="eCZ9WuT75yt1" xmlns="http://www.w3.org/2000/svg" xmlns:xlink="http://www.w3.org/1999/xlink" viewBox="0 0 500 500" shape-rendering="geometricPrecision" text-rendering="geometricPrecision" project-id="d1a7c1755742406c9dcfcebbfbf6b46c" export-id="5466a0a615b84b41a0af2b7223cb7ea9" cached="false"><defs><linearGradient id="eCZ9WuT75yt4-stroke" x1="0" y1="0.5" x2="1" y2="0.5" spreadMethod="pad" gradientUnits="objectBoundingBox" gradientTransform="translate(0 0)"><stop id="eCZ9WuT75yt4-stroke-0" offset="0%" stop-color="#fd6215"/><stop id="eCZ9WuT75yt4-stroke-1" offset="100%" stop-color="#fa0"/></linearGradient><linearGradient id="eCZ9WuT75yt11-stroke" x1="0" y1="0.5" x2="1" y2="0.5" spreadMethod="pad" gradientUnits="objectBoundingBox" gradientTransform="translate(0 0)"><stop id="eCZ9WuT75yt11-stroke-0" offset="0%" stop-color="#fa0a2e"/><stop id="eCZ9WuT75yt11-stroke-1" offset="27%" stop-color="#fb3522"/><stop id="eCZ9WuT75yt11-stroke-2" offset="55%" stop-color="#fd6215"/><stop id="eCZ9WuT75yt11-stroke-3" offset="79%" stop-color="#fe880a"/><stop id="eCZ9WuT75yt11-stroke-4" offset="100%" stop-color="#fa0"/></linearGradient><linearGradient id="eCZ9WuT75yt17-stroke" x1="0" y1="0.5" x2="1" y2="0.5" spreadMethod="pad" gradientUnits="objectBoundingBox" gradientTransform="translate(0 0)"><stop id="eCZ9WuT75yt17-stroke-0" offset="0%" stop-color="#fb3522"/><stop id="eCZ9WuT75yt17-stroke-1" offset="100%" stop-color="#fa0"/></linearGradient></defs><g transform="matrix(.965926 0.258819-.258819 0.965926 73.223305-56.186218)"><g mask="url(#eCZ9WuT75yt5)"><ellipse rx="125" ry="125" transform="translate(400 250)" fill="none" stroke="url(#eCZ9WuT75yt4-stroke)" stroke-width="40"/><mask id="eCZ9WuT75yt5" mask-type="luminance" x="-150%" y="-150%" height="400%" width="400%"><g><rect width="500" height="500" rx="0" ry="0" fill="#fff" stroke-width="0"/><ellipse rx="235" ry="235" transform="translate(250 250)" fill="none" stroke="#000" stroke-width="90"/><ellipse rx="235" ry="235" transform="matrix(1.058878 0 0 1 256.894721 250)" fill="none" stroke="#000" stroke-width="90"/></g></mask></g><g mask="url(#eCZ9WuT75yt12)"><ellipse rx="225" ry="225" transform="translate(249.998181 249.998181)" fill="none" stroke="url(#eCZ9WuT75yt11-stroke)" stroke-width="40"/><mask id="eCZ9WuT75yt12" mask-type="luminance" x="-150%" y="-150%" height="400%" width="400%"><g><rect width="500" height="500" rx="0" ry="0" fill="#fff" stroke-width="0"/></g></mask></g><g mask="url(#eCZ9WuT75yt18)"><path d="M185,0c0,102.172679-82.827321,185-185,185s-185-82.827321-185-185s82.827321-185,185-185s185,82.827321,185,185Z" transform="translate(327.272796 249.152065)" fill="none" stroke="url(#eCZ9WuT75yt17-stroke)" stroke-width="40"/><mask id="eCZ9WuT75yt18" mask-type="luminance" x="-150%" y="-150%" height="400%" width="400%"><g><rect width="500" height="500" rx="0" ry="0" fill="#fff" stroke-width="0"/><ellipse rx="235" ry="235" transform="translate(250 250)" fill="none" stroke="#000" stroke-width="90"/><ellipse rx="235" ry="235" transform="matrix(1.078103 0 0 1 259.146003 250)" fill="none" stroke="#000" stroke-width="90"/></g></mask></g></g></svg>
